<mxfile host="app.diagrams.net" modified="2022-10-17T01:03:34.291Z" agent="5.0 (Windows NT 10.0; Win64; x64) AppleWebKit/537.36 (KHTML, like Gecko) Chrome/106.0.0.0 Safari/537.36" etag="rHCdZmyPWiP_mWkevNGT" version="20.4.1" type="github">
  <diagram name="Page-1" id="58cdce13-f638-feb5-8d6f-7d28b1aa9fa0">
    <mxGraphModel dx="933" dy="1033" grid="1" gridSize="10" guides="1" tooltips="1" connect="1" arrows="1" fold="1" page="1" pageScale="1" pageWidth="1100" pageHeight="850" background="none" math="0" shadow="0">
      <root>
        <mxCell id="0" />
        <mxCell id="1" parent="0" />
        <mxCell id="1l5_-LhP8rIa0Do-baB--22" value="" style="edgeStyle=none;rounded=0;orthogonalLoop=1;jettySize=auto;html=1;endArrow=none;endFill=0;exitX=0.5;exitY=0.5;exitDx=0;exitDy=0;exitPerimeter=0;" edge="1" parent="1" source="1l5_-LhP8rIa0Do-baB--19" target="1l5_-LhP8rIa0Do-baB--21">
          <mxGeometry relative="1" as="geometry" />
        </mxCell>
        <mxCell id="1l5_-LhP8rIa0Do-baB--24" style="edgeStyle=none;rounded=0;orthogonalLoop=1;jettySize=auto;html=1;exitX=0.5;exitY=0.5;exitDx=0;exitDy=0;exitPerimeter=0;entryX=0;entryY=0.5;entryDx=0;entryDy=0;endArrow=none;endFill=0;" edge="1" parent="1" source="1l5_-LhP8rIa0Do-baB--19" target="1l5_-LhP8rIa0Do-baB--23">
          <mxGeometry relative="1" as="geometry" />
        </mxCell>
        <mxCell id="1l5_-LhP8rIa0Do-baB--19" value="사용자" style="shape=umlActor;verticalLabelPosition=bottom;verticalAlign=top;html=1;" vertex="1" parent="1">
          <mxGeometry x="41" y="140" width="30" height="60" as="geometry" />
        </mxCell>
        <mxCell id="1l5_-LhP8rIa0Do-baB--20" value="게시판 서비스" style="shape=umlFrame;whiteSpace=wrap;html=1;width=110;height=40;" vertex="1" parent="1">
          <mxGeometry x="121" y="40" width="920" height="720" as="geometry" />
        </mxCell>
        <mxCell id="1l5_-LhP8rIa0Do-baB--26" value="" style="edgeStyle=none;rounded=0;orthogonalLoop=1;jettySize=auto;html=1;endArrow=classic;endFill=1;" edge="1" parent="1" source="1l5_-LhP8rIa0Do-baB--21" target="1l5_-LhP8rIa0Do-baB--25">
          <mxGeometry relative="1" as="geometry" />
        </mxCell>
        <mxCell id="1l5_-LhP8rIa0Do-baB--21" value="로그인" style="ellipse;whiteSpace=wrap;html=1;" vertex="1" parent="1">
          <mxGeometry x="161" y="135" width="130" height="70" as="geometry" />
        </mxCell>
        <mxCell id="1l5_-LhP8rIa0Do-baB--34" style="edgeStyle=none;rounded=0;orthogonalLoop=1;jettySize=auto;html=1;entryX=0;entryY=0.5;entryDx=0;entryDy=0;endArrow=classic;endFill=1;" edge="1" parent="1" source="1l5_-LhP8rIa0Do-baB--23" target="1l5_-LhP8rIa0Do-baB--33">
          <mxGeometry relative="1" as="geometry" />
        </mxCell>
        <mxCell id="1l5_-LhP8rIa0Do-baB--49" style="edgeStyle=none;rounded=0;orthogonalLoop=1;jettySize=auto;html=1;entryX=0;entryY=0.5;entryDx=0;entryDy=0;endArrow=classic;endFill=1;" edge="1" parent="1" target="1l5_-LhP8rIa0Do-baB--48">
          <mxGeometry relative="1" as="geometry">
            <mxPoint x="321" y="276" as="sourcePoint" />
            <Array as="points">
              <mxPoint x="321" y="706" />
            </Array>
          </mxGeometry>
        </mxCell>
        <mxCell id="1l5_-LhP8rIa0Do-baB--23" value="글목록" style="ellipse;whiteSpace=wrap;html=1;" vertex="1" parent="1">
          <mxGeometry x="161" y="241" width="130" height="70" as="geometry" />
        </mxCell>
        <mxCell id="1l5_-LhP8rIa0Do-baB--28" value="" style="edgeStyle=none;rounded=0;orthogonalLoop=1;jettySize=auto;html=1;endArrow=classic;endFill=1;" edge="1" parent="1" source="1l5_-LhP8rIa0Do-baB--25" target="1l5_-LhP8rIa0Do-baB--27">
          <mxGeometry relative="1" as="geometry" />
        </mxCell>
        <mxCell id="1l5_-LhP8rIa0Do-baB--25" value="약관" style="ellipse;whiteSpace=wrap;html=1;" vertex="1" parent="1">
          <mxGeometry x="361" y="135" width="130" height="70" as="geometry" />
        </mxCell>
        <mxCell id="1l5_-LhP8rIa0Do-baB--30" value="&amp;lt;&amp;lt;include&amp;gt;&amp;gt;" style="edgeStyle=none;rounded=0;orthogonalLoop=1;jettySize=auto;html=1;endArrow=classic;endFill=1;dashed=1;" edge="1" parent="1" source="1l5_-LhP8rIa0Do-baB--27" target="1l5_-LhP8rIa0Do-baB--29">
          <mxGeometry relative="1" as="geometry" />
        </mxCell>
        <mxCell id="1l5_-LhP8rIa0Do-baB--32" value="&amp;lt;&amp;lt;include&amp;gt;&amp;gt;" style="edgeStyle=none;rounded=0;orthogonalLoop=1;jettySize=auto;html=1;entryX=0;entryY=0.5;entryDx=0;entryDy=0;dashed=1;endArrow=classic;endFill=1;exitX=1;exitY=0.5;exitDx=0;exitDy=0;" edge="1" parent="1" source="1l5_-LhP8rIa0Do-baB--27" target="1l5_-LhP8rIa0Do-baB--31">
          <mxGeometry relative="1" as="geometry" />
        </mxCell>
        <mxCell id="1l5_-LhP8rIa0Do-baB--27" value="회원가입" style="ellipse;whiteSpace=wrap;html=1;" vertex="1" parent="1">
          <mxGeometry x="561" y="135" width="130" height="70" as="geometry" />
        </mxCell>
        <mxCell id="1l5_-LhP8rIa0Do-baB--29" value="ID 중복체크" style="ellipse;whiteSpace=wrap;html=1;" vertex="1" parent="1">
          <mxGeometry x="841" y="135" width="130" height="70" as="geometry" />
        </mxCell>
        <mxCell id="1l5_-LhP8rIa0Do-baB--31" value="우편번호 검색" style="ellipse;whiteSpace=wrap;html=1;" vertex="1" parent="1">
          <mxGeometry x="841" y="240" width="130" height="70" as="geometry" />
        </mxCell>
        <mxCell id="1l5_-LhP8rIa0Do-baB--36" style="edgeStyle=none;rounded=0;orthogonalLoop=1;jettySize=auto;html=1;entryX=0;entryY=0.5;entryDx=0;entryDy=0;endArrow=classic;endFill=1;" edge="1" parent="1" source="1l5_-LhP8rIa0Do-baB--33" target="1l5_-LhP8rIa0Do-baB--35">
          <mxGeometry relative="1" as="geometry" />
        </mxCell>
        <mxCell id="1l5_-LhP8rIa0Do-baB--45" style="edgeStyle=none;rounded=0;orthogonalLoop=1;jettySize=auto;html=1;entryX=0;entryY=0.5;entryDx=0;entryDy=0;endArrow=classic;endFill=1;" edge="1" parent="1" target="1l5_-LhP8rIa0Do-baB--38">
          <mxGeometry relative="1" as="geometry">
            <mxPoint x="521" y="341" as="sourcePoint" />
            <Array as="points">
              <mxPoint x="521" y="436" />
            </Array>
          </mxGeometry>
        </mxCell>
        <mxCell id="1l5_-LhP8rIa0Do-baB--54" style="edgeStyle=none;rounded=0;orthogonalLoop=1;jettySize=auto;html=1;entryX=0;entryY=0.5;entryDx=0;entryDy=0;endArrow=classic;endFill=1;" edge="1" parent="1" target="1l5_-LhP8rIa0Do-baB--37">
          <mxGeometry relative="1" as="geometry">
            <mxPoint x="521" y="276" as="sourcePoint" />
            <Array as="points">
              <mxPoint x="521" y="356" />
            </Array>
          </mxGeometry>
        </mxCell>
        <mxCell id="1l5_-LhP8rIa0Do-baB--33" value="글보기" style="ellipse;whiteSpace=wrap;html=1;" vertex="1" parent="1">
          <mxGeometry x="361" y="241" width="130" height="70" as="geometry" />
        </mxCell>
        <mxCell id="1l5_-LhP8rIa0Do-baB--35" value="글수정" style="ellipse;whiteSpace=wrap;html=1;" vertex="1" parent="1">
          <mxGeometry x="561" y="241" width="130" height="70" as="geometry" />
        </mxCell>
        <mxCell id="1l5_-LhP8rIa0Do-baB--37" value="글삭제" style="ellipse;whiteSpace=wrap;html=1;" vertex="1" parent="1">
          <mxGeometry x="561" y="321" width="130" height="70" as="geometry" />
        </mxCell>
        <mxCell id="1l5_-LhP8rIa0Do-baB--38" value="댓글쓰기" style="ellipse;whiteSpace=wrap;html=1;" vertex="1" parent="1">
          <mxGeometry x="561" y="401" width="130" height="70" as="geometry" />
        </mxCell>
        <mxCell id="1l5_-LhP8rIa0Do-baB--39" value="댓글수정" style="ellipse;whiteSpace=wrap;html=1;" vertex="1" parent="1">
          <mxGeometry x="561" y="481" width="130" height="70" as="geometry" />
        </mxCell>
        <mxCell id="1l5_-LhP8rIa0Do-baB--40" value="댓글삭제" style="ellipse;whiteSpace=wrap;html=1;" vertex="1" parent="1">
          <mxGeometry x="561" y="561" width="130" height="70" as="geometry" />
        </mxCell>
        <mxCell id="1l5_-LhP8rIa0Do-baB--46" style="edgeStyle=none;rounded=0;orthogonalLoop=1;jettySize=auto;html=1;entryX=0;entryY=0.5;entryDx=0;entryDy=0;endArrow=classic;endFill=1;" edge="1" parent="1" target="1l5_-LhP8rIa0Do-baB--39">
          <mxGeometry relative="1" as="geometry">
            <mxPoint x="521" y="421" as="sourcePoint" />
            <mxPoint x="571" y="446" as="targetPoint" />
            <Array as="points">
              <mxPoint x="521" y="516" />
            </Array>
          </mxGeometry>
        </mxCell>
        <mxCell id="1l5_-LhP8rIa0Do-baB--47" style="edgeStyle=none;rounded=0;orthogonalLoop=1;jettySize=auto;html=1;entryX=0;entryY=0.5;entryDx=0;entryDy=0;endArrow=classic;endFill=1;" edge="1" parent="1" target="1l5_-LhP8rIa0Do-baB--40">
          <mxGeometry relative="1" as="geometry">
            <mxPoint x="521" y="501" as="sourcePoint" />
            <mxPoint x="571" y="526" as="targetPoint" />
            <Array as="points">
              <mxPoint x="521" y="596" />
            </Array>
          </mxGeometry>
        </mxCell>
        <mxCell id="1l5_-LhP8rIa0Do-baB--48" value="글쓰기" style="ellipse;whiteSpace=wrap;html=1;" vertex="1" parent="1">
          <mxGeometry x="361" y="671" width="130" height="70" as="geometry" />
        </mxCell>
        <mxCell id="1l5_-LhP8rIa0Do-baB--51" style="edgeStyle=none;rounded=0;orthogonalLoop=1;jettySize=auto;html=1;entryX=1;entryY=0.5;entryDx=0;entryDy=0;endArrow=classic;endFill=1;dashed=1;" edge="1" parent="1" source="1l5_-LhP8rIa0Do-baB--50" target="1l5_-LhP8rIa0Do-baB--48">
          <mxGeometry relative="1" as="geometry" />
        </mxCell>
        <mxCell id="1l5_-LhP8rIa0Do-baB--53" value="&amp;lt;&amp;lt;extend&amp;gt;&amp;gt;" style="edgeLabel;html=1;align=center;verticalAlign=middle;resizable=0;points=[];" vertex="1" connectable="0" parent="1l5_-LhP8rIa0Do-baB--51">
          <mxGeometry x="-0.1367" y="-1" relative="1" as="geometry">
            <mxPoint as="offset" />
          </mxGeometry>
        </mxCell>
        <mxCell id="1l5_-LhP8rIa0Do-baB--50" value="파일업로드" style="ellipse;whiteSpace=wrap;html=1;" vertex="1" parent="1">
          <mxGeometry x="611" y="671" width="130" height="70" as="geometry" />
        </mxCell>
      </root>
    </mxGraphModel>
  </diagram>
</mxfile>
